<svg width="612" height="426" viewBox="0 0 612 426" fill="none" xmlns="http://www.w3.org/2000/svg">
<g filter="url(#filter0_d)">
<path fill-rule="evenodd" clip-rule="evenodd" d="M454.732 141.017C454.732 144.8 454.546 148.539 454.183 152.227C459.532 149.861 465.451 148.548 471.676 148.548C495.591 148.548 514.978 167.935 514.978 191.849C514.978 197.779 513.786 203.431 511.628 208.577C548.38 219.329 575.223 253.287 575.223 293.514C575.223 341.754 536.621 380.978 488.621 381.98V382H164.8V381.947C93.7567 379.954 36.7773 321.737 36.7773 250.212C36.7773 177.428 95.7806 118.425 168.565 118.425C190.382 118.425 210.96 123.726 229.083 133.111C233.141 74.4133 282.043 28.0564 341.771 28.0564C404.158 28.0564 454.732 78.6306 454.732 141.017Z" fill="white"/>
</g>
<mask id="path-2-outside-1" maskUnits="userSpaceOnUse" x="22" y="13" width="569" height="375" fill="black">
<rect fill="white" x="22" y="13" width="569" height="375"/>
<path fill-rule="evenodd" clip-rule="evenodd" d="M462.343 132.741C462.343 136.718 462.148 140.649 461.766 144.525C467.389 142.038 473.61 140.657 480.154 140.657C505.293 140.657 525.672 161.036 525.672 186.175C525.672 192.408 524.419 198.349 522.151 203.759C560.783 215.061 589.001 250.756 589.001 293.042C589.001 343.751 548.422 384.982 497.966 386.036V386.056H157.574V386.001C82.8953 383.906 23 322.71 23 247.525C23 171.016 85.0227 108.993 161.532 108.993C184.465 108.993 206.097 114.566 225.147 124.431C229.413 62.7292 280.817 14 343.602 14C409.181 14 462.343 67.1623 462.343 132.741Z"/>
</mask>
<g filter="url(#filter1_i)">
<path fill-rule="evenodd" clip-rule="evenodd" d="M462.343 132.741C462.343 136.718 462.148 140.649 461.766 144.525C467.389 142.038 473.61 140.657 480.154 140.657C505.293 140.657 525.672 161.036 525.672 186.175C525.672 192.408 524.419 198.349 522.151 203.759C560.783 215.061 589.001 250.756 589.001 293.042C589.001 343.751 548.422 384.982 497.966 386.036V386.056H157.574V386.001C82.8953 383.906 23 322.71 23 247.525C23 171.016 85.0227 108.993 161.532 108.993C184.465 108.993 206.097 114.566 225.147 124.431C229.413 62.7292 280.817 14 343.602 14C409.181 14 462.343 67.1623 462.343 132.741Z" fill="white"/>
</g>
<path d="M461.766 144.525L460.771 144.427L460.603 146.132L462.17 145.439L461.766 144.525ZM522.151 203.759L521.229 203.372L520.796 204.404L521.87 204.718L522.151 203.759ZM497.966 386.036L497.945 385.036L496.966 385.056V386.036H497.966ZM497.966 386.056V387.056H498.966V386.056H497.966ZM157.574 386.056H156.574V387.056H157.574V386.056ZM157.574 386.001H158.574V385.028L157.602 385.001L157.574 386.001ZM225.147 124.431L224.687 125.319L226.039 126.019L226.144 124.5L225.147 124.431ZM462.761 144.623C463.146 140.714 463.343 136.751 463.343 132.741H461.343C461.343 136.685 461.149 140.583 460.771 144.427L462.761 144.623ZM480.154 139.657C473.469 139.657 467.11 141.068 461.361 143.61L462.17 145.439C467.669 143.008 473.752 141.657 480.154 141.657V139.657ZM526.672 186.175C526.672 160.484 505.845 139.657 480.154 139.657V141.657C504.741 141.657 524.672 161.589 524.672 186.175H526.672ZM523.073 204.145C525.392 198.615 526.672 192.543 526.672 186.175H524.672C524.672 192.273 523.446 198.082 521.229 203.372L523.073 204.145ZM590.001 293.042C590.001 250.3 561.479 214.223 522.432 202.799L521.87 204.718C560.088 215.9 588.001 251.212 588.001 293.042H590.001ZM497.987 387.035C548.986 385.971 590.001 344.296 590.001 293.042H588.001C588.001 343.206 547.859 383.994 497.945 385.036L497.987 387.035ZM496.966 386.036V386.056H498.966V386.036H496.966ZM497.966 385.056H157.574V387.056H497.966V385.056ZM158.574 386.056V386.001H156.574V386.056H158.574ZM22 247.525C22 323.253 82.3276 384.89 157.546 387L157.602 385.001C83.4629 382.921 24 322.167 24 247.525H22ZM161.532 107.993C84.4704 107.993 22 170.464 22 247.525H24C24 171.568 85.575 109.993 161.532 109.993V107.993ZM225.607 123.543C206.418 113.606 184.629 107.993 161.532 107.993V109.993C184.301 109.993 205.776 115.526 224.687 125.319L225.607 123.543ZM343.602 13C280.287 13 228.451 62.1396 224.149 124.362L226.144 124.5C230.374 63.3188 281.346 15 343.602 15V13ZM463.343 132.741C463.343 66.61 409.733 13 343.602 13V15C408.629 15 461.343 67.7146 461.343 132.741H463.343Z" fill="#141428" fill-opacity="0.2" mask="url(#path-2-outside-1)"/>
<defs>
<filter id="filter0_d" x="0.777344" y="0.0563965" width="610.446" height="425.944" filterUnits="userSpaceOnUse" color-interpolation-filters="sRGB">
<feFlood flood-opacity="0" result="BackgroundImageFix"/>
<feColorMatrix in="SourceAlpha" type="matrix" values="0 0 0 0 0 0 0 0 0 0 0 0 0 0 0 0 0 0 127 0"/>
<feOffset dy="8"/>
<feGaussianBlur stdDeviation="18"/>
<feColorMatrix type="matrix" values="0 0 0 0 0.196078 0 0 0 0 0.196078 0 0 0 0 0.368627 0 0 0 0.35 0"/>
<feBlend mode="normal" in2="BackgroundImageFix" result="effect1_dropShadow"/>
<feBlend mode="normal" in="SourceGraphic" in2="effect1_dropShadow" result="shape"/>
</filter>
<filter id="filter1_i" x="22" y="11" width="568.001" height="376.056" filterUnits="userSpaceOnUse" color-interpolation-filters="sRGB">
<feFlood flood-opacity="0" result="BackgroundImageFix"/>
<feBlend mode="normal" in="SourceGraphic" in2="BackgroundImageFix" result="shape"/>
<feColorMatrix in="SourceAlpha" type="matrix" values="0 0 0 0 0 0 0 0 0 0 0 0 0 0 0 0 0 0 127 0" result="hardAlpha"/>
<feOffset dy="-2"/>
<feGaussianBlur stdDeviation="3"/>
<feComposite in2="hardAlpha" operator="arithmetic" k2="-1" k3="1"/>
<feColorMatrix type="matrix" values="0 0 0 0 0.196078 0 0 0 0 0.196078 0 0 0 0 0.368627 0 0 0 0.2 0"/>
<feBlend mode="normal" in2="shape" result="effect1_innerShadow"/>
</filter>
</defs>
</svg>
